<svg width="76" height="76" viewBox="0 0 76 76" fill="none" xmlns="http://www.w3.org/2000/svg">
<circle cx="38" cy="38" r="38" fill="#4660A4"/>
<path d="M35.1979 24.56V38.364C35.1979 41.1973 34.3819 43.4073 32.7499 44.994C31.1179 46.558 28.8059 47.34 25.8139 47.34C23.6153 47.34 21.8473 46.9547 20.5099 46.184C19.1953 45.3907 18.2773 44.3027 17.7559 42.92C17.2573 41.5147 17.1553 39.9167 17.4499 38.126L23.1619 37.106C22.8899 39.1687 22.9806 40.6307 23.4339 41.492C23.9099 42.3307 24.7713 42.75 26.0179 42.75C27.2419 42.75 28.1033 42.342 28.6019 41.526C29.1006 40.71 29.3499 39.452 29.3499 37.752V24.56H35.1979ZM58.9695 40.574C58.3122 42.9313 57.0995 44.654 55.3315 45.742C53.5862 46.8073 51.5235 47.34 49.1435 47.34C46.8542 47.34 44.8822 46.8867 43.2275 45.98C41.5955 45.0507 40.3375 43.7247 39.4535 42.002C38.5695 40.2793 38.1275 38.2053 38.1275 35.78C38.1275 33.3547 38.5695 31.2807 39.4535 29.558C40.3375 27.8353 41.5955 26.5207 43.2275 25.614C44.8822 24.6847 46.8428 24.22 49.1095 24.22C51.4442 24.22 53.4842 24.7187 55.2295 25.716C56.9748 26.7133 58.1308 28.2773 58.6975 30.408L53.5635 32.482C53.2462 31.0993 52.7248 30.1473 51.9995 29.626C51.2968 29.082 50.4015 28.81 49.3135 28.81C47.6815 28.81 46.4008 29.3993 45.4715 30.578C44.5648 31.7567 44.1115 33.4907 44.1115 35.78C44.1115 38.0693 44.5422 39.8033 45.4035 40.982C46.2875 42.1607 47.6022 42.75 49.3475 42.75C50.4355 42.75 51.3535 42.4553 52.1015 41.866C52.8722 41.254 53.3935 40.3247 53.6655 39.078L58.9695 40.574Z" fill="#FFF7F7"/>
</svg>
